<svg width="10" height="10" viewBox="0 0 10 10" fill="none" xmlns="http://www.w3.org/2000/svg">
<path d="M9.03535 1.50671L9.07071 1.47135L9.03535 1.436L8.564 0.964645L8.52865 0.929289L8.49329 0.964645L5 4.45794L1.50671 0.964645L1.47135 0.929289L1.436 0.964645L0.964645 1.436L0.929289 1.47135L0.964645 1.50671L4.45794 5L0.964645 8.49329L0.929289 8.52865L0.964645 8.564L1.436 9.03535L1.47135 9.07071L1.50671 9.03535L5 5.54206L8.49329 9.03535L8.52865 9.07071L8.564 9.03535L9.03535 8.564L9.07071 8.52865L9.03535 8.49329L5.54206 5L9.03535 1.50671Z" fill="#333333" stroke="#333333" stroke-width="0.1"/>
</svg>
