<svg width="81" height="114" viewBox="0 0 81 114" fill="none" xmlns="http://www.w3.org/2000/svg">
<path d="M0 2C0 0.89543 0.89543 0 2 0H78.75C79.8546 0 80.75 0.895431 80.75 2V112C80.75 113.105 79.8546 114 78.75 114H2C0.895432 114 0 113.105 0 112V2Z" fill="#F5EFF3"/>
<path d="M28.8882 57.5068C31.2896 54.3615 36.0247 54.3615 38.4261 57.5068L48.3143 70.4584H19L28.8882 57.5068Z" fill="#AB2680"/>
<path d="M43.3707 54.3638C45.1563 51.7357 49.0295 51.7357 50.8151 54.3638L61.75 70.4583H32.4358L43.3707 54.3638Z" fill="#D0608D"/>
<ellipse rx="2.44286" ry="2.375" transform="matrix(1 0 0 -1 40.375 45.9166)" fill="#D0608D"/>
</svg>
