<svg width="99" height="132" viewBox="0 0 99 132" fill="none" xmlns="http://www.w3.org/2000/svg">
<g filter="url(#filter0_d)">
<path d="M9 5C9 3.89543 9.89543 3 11 3H87.75C88.8546 3 89.75 3.89543 89.75 5V115C89.75 116.105 88.8546 117 87.75 117H11C9.89543 117 9 116.105 9 115V5Z" fill="#F5EFF3"/>
</g>
<path d="M37.8882 60.5068C40.2896 57.3615 45.0247 57.3615 47.4261 60.5068L57.3143 73.4584H28L37.8882 60.5068Z" fill="#AB2680"/>
<path d="M52.3707 57.3638C54.1563 54.7357 58.0295 54.7357 59.8151 57.3638L70.75 73.4583H41.4358L52.3707 57.3638Z" fill="#D0608D"/>
<ellipse rx="2.44286" ry="2.375" transform="matrix(1 0 0 -1 49.375 48.9166)" fill="#D0608D"/>
<defs>
<filter id="filter0_d" x="0" y="0" width="98.75" height="132" filterUnits="userSpaceOnUse" color-interpolation-filters="sRGB">
<feFlood flood-opacity="0" result="BackgroundImageFix"/>
<feColorMatrix in="SourceAlpha" type="matrix" values="0 0 0 0 0 0 0 0 0 0 0 0 0 0 0 0 0 0 127 0"/>
<feOffset dy="6"/>
<feGaussianBlur stdDeviation="4.5"/>
<feColorMatrix type="matrix" values="0 0 0 0 0 0 0 0 0 0 0 0 0 0 0 0 0 0 0.15 0"/>
<feBlend mode="normal" in2="BackgroundImageFix" result="effect1_dropShadow"/>
<feBlend mode="normal" in="SourceGraphic" in2="effect1_dropShadow" result="shape"/>
</filter>
</defs>
</svg>
